<?xml version="1.0" encoding="UTF-8" standalone="no"?>
<svg
   xmlns:dc="http://purl.org/dc/elements/1.1/"
   xmlns:cc="http://creativecommons.org/ns#"
   xmlns:rdf="http://www.w3.org/1999/02/22-rdf-syntax-ns#"
   xmlns:svg="http://www.w3.org/2000/svg"
   xmlns="http://www.w3.org/2000/svg"
   xmlns:sodipodi="http://sodipodi.sourceforge.net/DTD/sodipodi-0.dtd"
   xmlns:inkscape="http://www.inkscape.org/namespaces/inkscape"
   sodipodi:docname="drawing.svg"
   inkscape:version="1.0 (4035a4fb49, 2020-05-01)"
   id="svg8"
   version="1.1"
   viewBox="0 0 210 297"
   height="297mm"
   width="210mm">
  <defs
     id="defs2" />
  <sodipodi:namedview
     inkscape:window-maximized="1"
     inkscape:window-y="-8"
     inkscape:window-x="-8"
     inkscape:window-height="987"
     inkscape:window-width="1680"
     inkscape:snap-global="true"
     inkscape:snap-page="false"
     inkscape:snap-grids="true"
     showgrid="false"
     inkscape:document-rotation="0"
     inkscape:current-layer="layer1"
     inkscape:document-units="mm"
     inkscape:cy="594.85121"
     inkscape:cx="-125.58202"
     inkscape:zoom="0.49497475"
     inkscape:pageshadow="2"
     inkscape:pageopacity="0.0"
     borderopacity="1.0"
     bordercolor="#666666"
     pagecolor="#ffffff"
     id="base" />
  <metadata
     id="metadata5">
    <rdf:RDF>
      <cc:Work
         rdf:about="">
        <dc:format>image/svg+xml</dc:format>
        <dc:type
           rdf:resource="http://purl.org/dc/dcmitype/StillImage" />
        <dc:title></dc:title>
      </cc:Work>
    </rdf:RDF>
  </metadata>
  <g
     id="layer1"
     inkscape:groupmode="layer"
     inkscape:label="Layer 1">
    <path
       id="path14"
       d="m 79.125721,133.35616 c -2.6108,-0.55936 -7.861772,-2.55742 -11.668826,-4.44012 C 47.310865,118.95318 36.202077,96.172761 40.78191,74.214551 44.764726,55.118748 61.6364,38.707426 80.903008,35.188168 c 21.356092,-3.900915 43.575472,7.357526 53.261412,26.987299 7.45744,15.113414 7.45744,29.421644 0,44.535063 -8.30905,16.83932 -26.13833,27.86284 -44.814592,27.70805 -3.01246,-0.0249 -7.61331,-0.50305 -10.224107,-1.06242 z"
       style="fill:#374548;stroke-width:5;stroke:#1a1a1a;stroke-opacity:1;stroke-miterlimit:4;stroke-dasharray:none" />
    <path
       style="fill:#374548;stroke:#1a1a1a;stroke-width:3.57191;stroke-miterlimit:4;stroke-dasharray:none;stroke-opacity:1"
       d="m 82.546737,49.842855 c -1.865635,0.399494 -5.617892,1.82647 -8.338347,3.171068 -14.396021,7.115327 -22.334174,23.384767 -19.061503,39.066998 2.846055,13.637939 14.902271,25.358659 28.669869,27.872069 15.260705,2.78599 31.138304,-5.25464 38.059724,-19.27394 5.32898,-10.793769 5.32898,-21.012499 0,-31.806281 -5.93751,-12.026393 -18.67803,-19.899229 -32.023768,-19.788673 -2.15265,0.01779 -5.440343,0.359271 -7.305975,0.758759 z"
       id="path14-9" />
  </g>
</svg>
