<?xml version="1.0" encoding="UTF-8"?>
<svg xmlns="http://www.w3.org/2000/svg" xmlns:xlink="http://www.w3.org/1999/xlink" width="27pt" height="27pt" viewBox="0 0 27 27" version="1.1">
<g id="surface1">
<path style=" stroke:none;fill-rule:nonzero;fill:rgb(0%,0%,0%);fill-opacity:1;" d="M 16.652344 14.433594 C 16.039062 14.433594 15.542969 14.929688 15.542969 15.542969 L 15.542969 19.984375 C 15.542969 20.59375 15.046875 21.09375 14.433594 21.09375 L 11.101562 21.09375 L 11.101562 4.441406 C 11.101562 3.492188 10.5 2.648438 9.589844 2.332031 L 9.257812 2.21875 L 14.433594 2.21875 C 15.046875 2.21875 15.542969 2.71875 15.542969 3.332031 L 15.542969 6.660156 C 15.542969 7.273438 16.039062 7.769531 16.652344 7.769531 C 17.265625 7.769531 17.761719 7.273438 17.761719 6.660156 L 17.761719 3.332031 C 17.761719 1.496094 16.269531 0 14.433594 0 L 2.496094 0 C 2.457031 0 2.421875 0.015625 2.378906 0.0234375 C 2.324219 0.0195312 2.277344 0 2.21875 0 C 0.996094 0 0 0.996094 0 2.21875 L 0 22.203125 C 0 23.152344 0.605469 23.996094 1.511719 24.3125 L 8.195312 26.539062 C 8.421875 26.609375 8.644531 26.644531 8.882812 26.644531 C 10.105469 26.644531 11.101562 25.648438 11.101562 24.425781 L 11.101562 23.3125 L 14.433594 23.3125 C 16.269531 23.3125 17.761719 21.820312 17.761719 19.984375 L 17.761719 15.542969 C 17.761719 14.929688 17.265625 14.433594 16.652344 14.433594 Z M 16.652344 14.433594 "/>
<path style=" stroke:none;fill-rule:nonzero;fill:rgb(0%,0%,0%);fill-opacity:1;" d="M 26.320312 10.316406 L 21.878906 5.878906 C 21.5625 5.558594 21.082031 5.464844 20.667969 5.632812 C 20.253906 5.808594 19.984375 6.214844 19.984375 6.660156 L 19.984375 9.992188 L 15.542969 9.992188 C 14.929688 9.992188 14.433594 10.488281 14.433594 11.101562 C 14.433594 11.714844 14.929688 12.210938 15.542969 12.210938 L 19.984375 12.210938 L 19.984375 15.542969 C 19.984375 15.992188 20.253906 16.394531 20.667969 16.570312 C 21.082031 16.738281 21.5625 16.644531 21.878906 16.328125 L 26.320312 11.886719 C 26.753906 11.453125 26.753906 10.75 26.320312 10.316406 Z M 26.320312 10.316406 "/>
</g>
</svg>
