<?xml version="1.0" encoding="UTF-8"?>
<svg xmlns="http://www.w3.org/2000/svg" xmlns:xlink="http://www.w3.org/1999/xlink" width="27pt" height="27pt" viewBox="0 0 27 27" version="1.1">
<g id="surface1">
<path style=" stroke:none;fill-rule:nonzero;fill:rgb(0.392157%,0%,0.784314%);fill-opacity:1;" d="M 23.496094 10.636719 L 5.523438 0.410156 C 3.617188 -0.675781 1.675781 0.511719 1.675781 2.652344 L 1.675781 24.003906 C 1.675781 25.820312 2.855469 26.644531 3.953125 26.644531 C 4.46875 26.644531 4.996094 26.480469 5.515625 26.164062 L 23.570312 15.113281 C 24.476562 14.558594 24.988281 13.730469 24.96875 12.851562 C 24.957031 11.964844 24.417969 11.160156 23.496094 10.636719 Z M 22.359375 13.140625 L 4.308594 24.1875 C 4.1875 24.261719 4.089844 24.300781 4.023438 24.316406 C 4.007812 24.25 3.988281 24.148438 3.988281 24.003906 L 3.988281 2.652344 C 3.988281 2.433594 4.03125 2.324219 4.03125 2.296875 C 4.101562 2.300781 4.226562 2.335938 4.382812 2.425781 L 22.351562 12.652344 C 22.570312 12.78125 22.636719 12.890625 22.660156 12.863281 C 22.648438 12.894531 22.570312 13.007812 22.359375 13.140625 Z M 22.359375 13.140625 "/>
</g>
</svg>
